<?xml version="1.0" standalone="yes"?>
<svg xmlns="http://www.w3.org/2000/svg" width="1097" height="255">
<path style="fill:#011d31; stroke:none;" d="M0 0L0 253L1 253C21.7903 219.153 43.1369 185.607 64.3187 152C72.7994 138.544 80.9668 118.635 96 111.403C107.321 105.956 121.789 107 134 107L201 107C171.64 136.38 151.994 178.82 130.192 214C119.925 230.568 111.012 252.078 89 254L89 255L336 255L336 195L176 195L202.157 153L203 115L203 65L202.298 41L189 20L174.674 0.603394L159 0L124 0L0 0z"/>
<path style="fill:#ed1b2f; stroke:none;" d="M176 0C183.711 20.3452 201.823 36.4765 212.982 54.8881C219.719 66.0036 223.943 78.0294 237 83.5355C248.672 88.4574 261.624 87 274 87L336 87L332 84C331.392 74.9229 324.154 70.7789 320.126 63.5216C316.921 57.7475 314.927 49.2811 308 47C307.545 40.2146 301.731 29.2165 295 27C294.424 18.403 286.872 7.98872 278 7C275.22 -0.989136 259.933 0 253 0L176 0z"/>
<path style="fill:#011d31; stroke:none;" d="M264 0L264 1L281 4.89583L336 5L336 0L264 0z"/>
<path style="fill:#ffffff; stroke:none;" d="M336 0L336 5L278 5L278 7C286.26 8.66762 293.913 18.8289 295 27C301.096 30.3355 307.09 40.155 308 47L320.126 64.2955L332 84L336 87L270 87C257.356 87 244.128 88.2253 233 80.9352C218.597 71.4997 216.866 49.0027 203 41L203 151L204 151C211.251 137.975 220.769 120.042 234 112.363C244.616 106.202 259.149 107 271 107L336 107C324.658 127.372 310.271 146.594 297.333 166C288.273 179.59 279.759 192.548 262 194L262 195L336 195L336 255L1097 255L1097 0L336 0z"/>
<path style="fill:#01819f; stroke:none;" d="M0 255L64 255C77.2169 255 90.7977 256.311 103 250.19C118.067 242.632 127.312 219.976 135.797 206C156.432 172.012 178.228 139.332 201 107L134 107C121.486 107 106.609 105.818 95 111.403C80.7475 118.26 72.9705 137.212 64.9498 150C50.7351 172.664 36.5829 195.368 22.3187 218C14.9534 229.686 4.74794 242.032 0 255z"/>
<path style="fill:#adc52b; stroke:none;" d="M176 195L237 195C249.412 195 262.245 196.177 274 191.373C285.305 186.754 290.87 176.695 297.333 167C309.746 148.381 328.079 127.898 336 107L275 107C262.707 107 248.684 105.922 237 110.468C225.973 114.757 219.558 125.446 213.576 135C205.775 147.458 197.377 159.541 189.576 172C184.938 179.407 178.491 186.534 176 195z"/>
</svg>
